<svg width="13" height="13" viewBox="0 0 13 13" fill="none" xmlns="http://www.w3.org/2000/svg">
<path d="M0.870117 6.63996C0.870117 5.50865 1.2056 4.40275 1.83412 3.4621C2.46264 2.52145 3.35598 1.78822 4.40117 1.35529C5.44636 0.922355 6.59647 0.809141 7.70604 1.02985C8.81561 1.25056 9.83481 1.79532 10.6348 2.59528C11.4347 3.39523 11.9795 4.41442 12.2002 5.52399C12.4209 6.63356 12.3076 7.78373 11.8747 8.82892C11.4418 9.87411 10.7086 10.7674 9.76799 11.3959C8.82734 12.0245 7.72143 12.3599 6.59012 12.3599C5.07308 12.3599 3.61818 11.7573 2.54547 10.6846C1.47276 9.61193 0.870117 8.15699 0.870117 6.63996Z" fill="#EAEEF1"/>
<g style="mix-blend-mode:multiply">
<path d="M6.03999 4.59998L4 6.67993L6.03999 8.81995" stroke="#9095A7" stroke-width="0.82" stroke-miterlimit="10"/>
<path d="M9.72 6.67993H4" stroke="#9095A7" stroke-width="0.82" stroke-miterlimit="10"/>
</g>
</svg>
